<svg id="Layer_1" data-name="Layer 1" xmlns="http://www.w3.org/2000/svg" viewBox="0 0 208.15 349.82"><defs><style>.cls-1,.cls-3{fill:none;stroke:#fff;stroke-miterlimit:10;}.cls-1{stroke-width:2px;}.cls-2,.cls-4,.cls-5,.cls-7{fill:#fff;}.cls-4{font-size:5.88px;font-family:MyriadPro-Regular, Myriad Pro;}.cls-5{font-size:16.06px;}.cls-5,.cls-7{font-family:Kanit-Regular, Kanit;}.cls-6{fill:#fbb040;}.cls-7{font-size:20.28px;}</style></defs><title>idcard</title><path class="cls-1" d="M68.13,308.94a2.65,2.65,0,0,0,3-2.44c-1.65-.1-3.42-.27-5.31-.53a29.54,29.54,0,0,1-3-.56C63.06,307.61,65,308.94,68.13,308.94Z"/><path class="cls-1" d="M71.08,270.56a2.65,2.65,0,0,0-3-2.44c-3.17,0-5.07,1.33-5.33,3.53a29.54,29.54,0,0,1,3-.56C67.67,270.83,69.43,270.66,71.08,270.56Z"/><path class="cls-1" d="M43.27,295.9l5-.35a13.62,13.62,0,0,1-2.05-7c0-.09,0-.18,0-.28h0a13.71,13.71,0,0,1,2.07-6.78l-5.15-.36a40.7,40.7,0,0,1,.81,7.81A39.45,39.45,0,0,1,43.27,295.9Z"/><path class="cls-1" d="M43.27,295.9a39.45,39.45,0,0,0,.66-7,40.7,40.7,0,0,0-.81-7.81c-2.28-11.57-5.89-22.24-10.05-22.24H28.93V318.5h4.14C37.33,318.5,41.15,307.66,43.27,295.9Z"/><path class="cls-2" d="M98.62,288.53c0-10.54-4.37-24.67-31.16-19.09l1.94.81-.69.14c4.46,1.42,13.86,27.2,14.66,27.87A10.5,10.5,0,0,0,75.6,301c-1.75,1.75-2.08,4.48-5.6,5.54l.6.16-3.15.87C94.25,313.2,98.62,299.07,98.62,288.53Zm-20.39,18c7.88,0,16.24-5.41,16.24-18s-8.36-18-16.24-18c11-.78,19.23,5.41,19.23,18S89.42,307.32,78.23,306.54Z"/><path class="cls-1" d="M94.25,288.53q0-.14,0-.28h0c-.07-8.83-3.34-18.85-23.16-17.69-1.65.1-3.42.27-5.31.53a29.54,29.54,0,0,0-3,.56,27.81,27.81,0,0,0-4.66,1.57,21.57,21.57,0,0,0-9.87,8.25,13.71,13.71,0,0,0-2.07,6.78h0c0,.09,0,.18,0,.28a13.62,13.62,0,0,0,2.05,7,21.56,21.56,0,0,0,9.9,8.29,27.82,27.82,0,0,0,4.66,1.57,29.54,29.54,0,0,0,3,.56c1.89.26,3.65.43,5.31.53C91.12,307.66,94.25,297.43,94.25,288.53Z"/><path class="cls-2" d="M50,279.08a22.93,22.93,0,0,1,8.12-5.85c-4.1,0-7.53-.73-8.65-1.57a8,8,0,0,0,1.12,3.41,12.25,12.25,0,0,1-2.35-.07A12.23,12.23,0,0,0,50,279.08Z"/><path class="cls-2" d="M50,298.11A22.93,22.93,0,0,0,58.14,304c-4.1,0-7.53.73-8.65,1.57a8,8,0,0,1,1.12-3.41,12.25,12.25,0,0,0-2.35.07A12.23,12.23,0,0,1,50,298.11Z"/><line class="cls-3" x1="48.27" y1="260.43" x2="48.27" y2="281.47"/><line class="cls-3" x1="66.94" y1="260.43" x2="66.94" y2="267.62"/><line class="cls-3" x1="86.18" y1="260.43" x2="86.18" y2="269.88"/><line class="cls-3" x1="104.94" y1="260.43" x2="104.94" y2="318.5"/><line class="cls-3" x1="86.18" y1="318.5" x2="86.18" y2="307.57"/><line class="cls-3" x1="66.94" y1="318.5" x2="66.94" y2="308.94"/><line class="cls-3" x1="48.27" y1="318.5" x2="48.27" y2="295.55"/><text class="cls-4" transform="translate(98.92 261.08) rotate(90)">160</text><text class="cls-4" transform="translate(79.83 261.08) rotate(90)">140</text><text class="cls-4" transform="translate(60.74 261.08) rotate(90)">120</text><path class="cls-2" d="M65.82,42.4h1.85V28.47H65.82Zm67.25-13.93V42.4h3.44V28.47ZM69.59,42.4H73V28.47H69.59Zm13.1,0h1.85V28.47H82.68Zm-30.75,0h8.2V28.47h-8.2Zm23,0h5.82V28.47H74.94Zm-26.78,0H50V28.47H48.16Zm-13.1,0h5.82V28.47H35.07Zm-5.36,0h3.44V28.47H29.71Zm13.1,0h3.44V28.47H42.8Zm19.25,0H63.9V28.47H62.05Zm54.95,0h6.61V28.47H117Zm8.53,0h1.85V28.47h-1.85Zm-12.3,0h1.85V28.47h-1.85Zm16.07,0h1.85V28.47H129.3Zm-42.85,0H88.3V28.47H86.45Zm3.77,0h6.61V28.47H90.22Zm19.25,0h1.85V28.47h-1.85Zm-10.71,0h3.44V28.47H98.75Zm5.36,0h3.44V28.47h-3.44Z"/><rect class="cls-1" x="-52.85" y="89.36" width="313.13" height="179.35" rx="9.81" ry="9.81" transform="translate(282.75 75.32) rotate(90)"/><circle class="cls-3" cx="165.77" cy="48.41" r="17.5"/><rect class="cls-1" x="38.97" y="248.83" width="59.63" height="79.71" transform="translate(357.47 219.91) rotate(90)"/><text class="cls-5" transform="translate(165.21 78.8) rotate(90)">บัตรประจำตัวประชาชน</text><rect class="cls-6" x="57.98" y="93.22" width="62.04" height="130.95" rx="7.66" ry="7.66" transform="translate(247.69 69.69) rotate(90)"/><text class="cls-7" transform="translate(44.59 152.49)">ถ่ายแนวตั้ง<tspan x="-10.55" y="24.33">รูปถ่ายอยู่ล่าง</tspan></text><polygon class="cls-6" points="84.24 189.71 84.24 212.7 84.24 214.62 75.84 214.62 89 237.4 102.15 214.62 93.76 214.62 93.76 212.7 93.76 189.71 84.24 189.71"/></svg>